# xmcd
# 
# Track frame offsets:
#     150
#     24150
#     45572
#     66137
#     86012
#     106917
#     133907
#     154827
#     181430
#     200570
# 
# Disc length: 2838
# 
# Revision: 3
# Processed by: cddbd v1.5.2PL0 Copyright (c) Steve Scherf et al.
# Submitted via: fre:ac v1.0.17
# 
DISCID=830b140a
DTITLE=費玉清 - 情深網事直到永遠
DYEAR=1992
DGENRE=Blues
TTITLE0=情深往事
TTITLE1=你是我永遠的鄉愁
TTITLE2=心事
TTITLE3=這一路走來
TTITLE4=昨日再見
TTITLE5=直到永遠
TTITLE6=相思比夢長
TTITLE7=情願自由
TTITLE8=終章
TTITLE9=往事情懷
EXTD=YEAR: 1992 ID3G: 0
EXTT0=
EXTT1=
EXTT2=
EXTT3=
EXTT4=
EXTT5=
EXTT6=
EXTT7=
EXTT8=
EXTT9=
PLAYORDER=
